<svg version="1.2" xmlns="http://www.w3.org/2000/svg" viewBox="0 0 128 128" width="128" height="128">
	<title>New Project</title>
	<style>
		.s0 { fill: #2ea967 } 
	</style>
	<path id="Layer" fill-rule="evenodd" class="s0" d="m104.7 5.1l18.2 18.2v81.4l-18.2 18.2h-81.4l-18.2-18.2v-81.4l18.2-18.2zm-65.7 58.9c10-7.4 16.5-19.2 16.5-32.6h-16.3c0 13.5-10.9 24.4-24.4 24.4v16.4c13.5 0 24.4 10.9 24.4 24.4h16.3c0-13.4-6.5-25.2-16.5-32.6zm74.1-8.2c-13.5 0-24.5-10.9-24.5-24.4h-16.3c0 13.4 6.6 25.2 16.6 32.6-10 7.4-16.6 19.2-16.6 32.6h16.3c0-13.5 11-24.4 24.5-24.4z"/>
</svg>