<svg version="1.2" xmlns="http://www.w3.org/2000/svg" viewBox="0 0 128 128" width="128" height="128">
	<title>New Project</title>
	<style>
		.s0 { fill: #9c84ef } 
	</style>
	<path id="Layer" fill-rule="evenodd" class="s0" d="m13.4 6.1h101.2c0.8 0 1.5 0.7 1.5 1.6v72.2c0 0.5-0.2 1-0.6 1.3l-50.5 40.4q-0.5 0.3-1 0.3-0.5 0-1-0.3l-50.5-40.4c-0.4-0.3-0.6-0.8-0.6-1.3v-72.2c0-0.9 0.7-1.6 1.5-1.6zm55.4 52.7l-4.5 9.2c-0.3 0.6-1.3 0.6-1.6 0l-4.5-9.2q-0.5-0.8-1.2-1.3l-29.9-19.7c-0.8-0.5-1.7 0.3-1.3 1.1l12.4 24.4c0.3 0.6-0.1 1.3-0.8 1.3h-7.4c-0.8 0-1.2 1.1-0.5 1.6l33.5 24c0.3 0.2 0.7 0.2 1 0l33.5-24c0.7-0.5 0.4-1.6-0.5-1.6h-7.4c-0.7 0-1.1-0.7-0.8-1.3l12.4-24.4c0.4-0.8-0.5-1.6-1.3-1.1l-29.8 19.7c-0.6 0.3-1 0.8-1.3 1.3z"/>
</svg>